<svg xmlns="http://www.w3.org/2000/svg"  viewBox="0 0 50 50" width="50px" height="50px"><path fill="#df4bb1" d="M44.373,12.571c-0.278-1.535-1.195-2.88-2.446-3.79c-1.342-0.976-3.082-1.26-4.69-0.95 c-0.515,0.099-0.856,0.744-0.698,1.23c0.178,0.549,0.679,0.805,1.23,0.698c-0.007,0.001,0.267-0.048,0.155-0.031 c-0.118,0.018,0.134-0.013,0.157-0.015c0.162-0.013,0.324-0.018,0.486-0.015c0.162,0.003,0.324,0.015,0.485,0.032 c-0.108-0.012-0.05-0.008,0.023,0.006c0.096,0.018,0.191,0.036,0.286,0.058c0.142,0.033,0.283,0.072,0.422,0.117 c0.077,0.025,0.153,0.054,0.23,0.08c0.165,0.058-0.019-0.013,0.075,0.031c0.294,0.138,0.559,0.307,0.83,0.485 c0.134,0.087-0.165-0.143,0.048,0.038c0.046,0.039,0.092,0.078,0.137,0.119c0.112,0.101,0.22,0.207,0.323,0.318 c0.051,0.055,0.101,0.112,0.15,0.17c0.045,0.053,0.126,0.159,0.041,0.046c0.091,0.121,0.175,0.246,0.255,0.375 c0.079,0.129,0.153,0.261,0.221,0.396c0.027,0.054,0.053,0.109,0.078,0.164c0.123,0.263-0.058-0.178,0.038,0.096 c0.1,0.287,0.182,0.575,0.236,0.874c0.094,0.516,0.748,0.854,1.23,0.698C44.227,13.622,44.473,13.124,44.373,12.571L44.373,12.571 z"/><path fill="#df4bb1" d="M39.126,13.619c1.287,0,1.289-2,0-2C37.839,11.619,37.837,13.619,39.126,13.619L39.126,13.619z"/><path fill="#df4bb1" d="M9.301,4.654c0.628,1.078,1.353,2.096,2.147,3.058c0.154,0.186,0.475,0.293,0.707,0.293 c0.245,0,0.538-0.109,0.707-0.293c0.175-0.191,0.305-0.441,0.293-0.707c-0.013-0.279-0.116-0.492-0.293-0.707 c-0.146-0.177-0.289-0.355-0.429-0.536c0.052,0.067,0.104,0.135,0.156,0.202c-0.57-0.739-1.092-1.513-1.561-2.32 c-0.263-0.452-0.915-0.651-1.368-0.359C9.204,3.58,9.02,4.171,9.301,4.654L9.301,4.654z"/><path fill="#df4bb1" d="M13.469,3.375c0.317,0.884,0.542,1.798,0.67,2.729c0.032,0.23,0.27,0.487,0.46,0.598 c0.214,0.125,0.53,0.179,0.771,0.101c0.242-0.078,0.475-0.228,0.598-0.46c0.034-0.08,0.067-0.159,0.101-0.239 c0.048-0.177,0.048-0.354,0-0.532c-0.128-0.931-0.352-1.845-0.67-2.729c-0.089-0.249-0.226-0.461-0.46-0.598 c-0.214-0.125-0.53-0.179-0.771-0.101C13.684,2.301,13.28,2.848,13.469,3.375L13.469,3.375z"/><path fill="#df4bb1" d="M18.391,3.606c-0.073,0.27-0.163,0.534-0.27,0.792c0.034-0.08,0.067-0.159,0.101-0.239 c-0.194,0.459-0.44,0.893-0.736,1.294c-0.145,0.196-0.162,0.547-0.101,0.771c0.064,0.232,0.243,0.483,0.46,0.598 c0.232,0.123,0.513,0.184,0.771,0.101c0.08-0.034,0.159-0.067,0.239-0.101c0.15-0.089,0.27-0.208,0.359-0.359 c0.51-0.691,0.884-1.496,1.107-2.324c0.068-0.251,0.031-0.545-0.101-0.771c-0.121-0.207-0.359-0.405-0.598-0.46 c-0.256-0.058-0.543-0.046-0.771,0.101C18.632,3.149,18.46,3.35,18.391,3.606L18.391,3.606z"/><path fill="#399bdf" d="M46.995,25.816c-0.021-1.166-0.125-2.371-0.549-3.468c-0.815-2.107-2.692-3.277-4.851-3.736 c-1.107-0.236-2.244-0.319-3.375-0.354c-0.393-2.324-1.753-4.433-4.065-5.497c-1.831-0.843-3.829-0.764-5.688-0.038 c-0.857,0.335-1.735,0.767-2.502,1.326c-1.271-1.825-3.083-3.272-5.28-3.956c-2.59-0.807-5.458-0.507-7.901,0.62 c-2.622,1.21-4.498,3.389-5.485,6.063c-0.643,1.742-0.935,3.638-1.008,5.487c-0.01,0.26-0.006,0.523,0.007,0.786 c-1.533,0.985-2.711,2.509-3.106,4.305c-0.693,3.149,1.034,6.59,3.977,7.953c0.648,1.939,2.078,3.637,3.888,4.669 c1.655,0.944,3.564,1.375,5.46,1.442c1.835,0.065,3.874-0.129,5.564-0.884c0.953-0.425,1.793-1.198,2.242-2.123 c1.111,0.858,2.351,1.603,3.7,1.939c2.1,0.524,4.234-0.103,5.858-1.396c1.234-0.643,2.225-1.677,2.677-3.018 c2.076-0.176,4.188-0.441,6.095-1.312c2.118-0.968,3.533-2.756,4.036-5.008C46.966,28.375,47.018,27.085,46.995,25.816z"/><path fill="#fff" d="M16.836,11.517c-2.515,0.295-4.402,1.978-5.774,4.016c-1.279,1.899-1.968,4.162-2.068,6.442 c-0.034,0.785,0.715,1.535,1.5,1.5c0.842-0.038,1.463-0.659,1.5-1.5c0.011-0.243,0.029-0.485,0.052-0.728 c0.011-0.111,0.026-0.196,0.002-0.036c0.018-0.12,0.038-0.24,0.06-0.36c0.079-0.431,0.184-0.857,0.314-1.275 c0.072-0.232,0.152-0.462,0.239-0.69c0.009-0.024,0.114-0.283,0.062-0.159c-0.063,0.148,0.088-0.192,0.102-0.221 c0.197-0.418,0.42-0.824,0.668-1.215c0.117-0.185,0.242-0.365,0.368-0.544c0.048-0.069,0.127-0.171,0.029-0.046 c0.074-0.096,0.152-0.19,0.231-0.283c0.298-0.352,0.617-0.687,0.964-0.991c0.073-0.064,0.148-0.127,0.223-0.188 c-0.183,0.148,0.068-0.046,0.104-0.071c0.178-0.123,0.363-0.238,0.554-0.341c-0.009,0.005,0.352-0.175,0.209-0.11 c-0.141,0.063,0.226-0.079,0.221-0.078c0.09-0.029,0.182-0.056,0.274-0.079c0.027-0.007,0.471-0.081,0.166-0.045 c0.777-0.091,1.539-0.624,1.5-1.5C18.303,12.283,17.67,11.419,16.836,11.517L16.836,11.517z"/><path fill="#399bdf" d="M24.689,41.057c-0.496-0.113-1.121,0.15-1.23,0.698c-0.286,1.44-0.507,2.892-0.677,4.351 c-0.028,0.237,0.131,0.546,0.293,0.707c0.173,0.173,0.458,0.304,0.707,0.293c0.259-0.011,0.527-0.096,0.707-0.293 c0.191-0.208,0.261-0.429,0.293-0.707c0.02-0.171,0.04-0.342,0.062-0.513c0.012-0.092,0.024-0.184,0.035-0.276 c0.001-0.01,0.002-0.013,0.003-0.021c0.001-0.01,0.002-0.015,0.004-0.029c0.046-0.328,0.094-0.656,0.145-0.984 c0.105-0.668,0.224-1.333,0.356-1.997C25.489,41.775,25.242,41.182,24.689,41.057z"/><path fill="#399bdf" d="M30.671,45.231c-0.023-0.145-0.045-0.289-0.066-0.434c-0.004-0.028-0.008-0.055-0.012-0.083 c-0.009-0.065-0.017-0.13-0.025-0.195c-0.075-0.618-0.128-1.238-0.159-1.859c-0.027-0.521-0.441-1.025-1-1 c-0.519,0.023-1.029,0.44-1,1c0.069,1.356,0.239,2.708,0.501,4.04c0.101,0.514,0.743,0.856,1.23,0.698 c0.547-0.177,0.807-0.679,0.698-1.23C30.778,45.856,30.721,45.544,30.671,45.231z"/><path fill="#399bdf" d="M35.706,45.144c-0.267-1.12-0.561-2.234-0.883-3.34c-0.146-0.502-0.711-0.866-1.23-0.698 c-0.51,0.165-0.855,0.692-0.698,1.23c0.322,1.106,0.616,2.219,0.883,3.34c0.121,0.509,0.729,0.861,1.23,0.698 C35.537,46.203,35.835,45.69,35.706,45.144z"/></svg>